<?xml version="1.0" encoding="utf-8"?>
<!-- Generator: Adobe Illustrator 16.0.0, SVG Export Plug-In . SVG Version: 6.00 Build 0)  -->
<!DOCTYPE svg PUBLIC "-//W3C//DTD SVG 1.1//EN" "http://www.w3.org/Graphics/SVG/1.1/DTD/svg11.dtd">
<svg version="1.1"
	 id="svg10067" xmlns:cc="http://creativecommons.org/ns#" xmlns:inkscape="http://www.inkscape.org/namespaces/inkscape" xmlns:dc="http://purl.org/dc/elements/1.1/" xmlns:rdf="http://www.w3.org/1999/02/22-rdf-syntax-ns#" xmlns:svg="http://www.w3.org/2000/svg" xmlns:sodipodi="http://sodipodi.sourceforge.net/DTD/sodipodi-0.dtd" inkscape:export-ydpi="200" inkscape:export-xdpi="200" inkscape:version="0.48.2 r9819" sodipodi:docname="03.design_system_map.svg" inkscape:export-filename="../03.design_system_map.png"
	 xmlns="http://www.w3.org/2000/svg" xmlns:xlink="http://www.w3.org/1999/xlink" x="0px" y="0px" width="1488.189px"
	 height="1052.363px" viewBox="0 0 1488.189 1052.363" enable-background="new 0 0 1488.189 1052.363" xml:space="preserve">
<sodipodi:namedview  units="mm" pagecolor="#ffffff" inkscape:cy="526.18109" borderopacity="1.0" bordercolor="#666666" showgrid="true" showguides="false" inkscape:zoom="0.45991771" inkscape:cx="744.09448" id="base" inkscape:pageshadow="2" inkscape:window-maximized="1" inkscape:window-height="795" inkscape:document-units="mm" inkscape:pageopacity="1" inkscape:window-y="0" inkscape:window-width="1440" inkscape:guide-bbox="true" inkscape:window-x="0" inkscape:current-layer="layer1">
	<sodipodi:guide  orientation="0,1" position="478.34646,974.40945" id="guide24376"></sodipodi:guide>
	<sodipodi:guide  orientation="1,0" position="35.433071,938.97638" id="guide24416"></sodipodi:guide>
	<sodipodi:guide  orientation="1,0" position="1452.7559,921.25984" id="guide24418"></sodipodi:guide>
	<sodipodi:guide  orientation="0,1" position="974.40945,106.29921" id="guide24420"></sodipodi:guide>
	<sodipodi:guide  orientation="0,1" position="389.76378,938.97638" id="guide24422"></sodipodi:guide>
	<sodipodi:guide  orientation="0,1" position="701.5748,1009.8425" id="guide24424"></sodipodi:guide>
	<sodipodi:guide  orientation="0,1" position="230.31496,921.25984" id="guide25257"></sodipodi:guide>
</sodipodi:namedview>
<a id="a24212" xlink:href="http://creativecommons.org/licenses/by-sa/3.0/"  transform="matrix(0.56208624,0,0,0.56208624,1028.2309,500.82271)" xlink:title="CC BY-SA">
	<text transform="matrix(1.7791 0 0 1.7791 -406.8837 834.9471)" font-family="'TitilliumText25L-250wt'" font-size="9">This work is licensed under the Creative Commons Attribution-Share Alike 3.0 Unported License.</text>
	<text transform="matrix(1.7791 0 0 1.7791 255.3033 834.9471)" font-family="'TitilliumText25L-250wt'" font-size="10"> </text>
	<text transform="matrix(1.7791 0 0 1.7791 -406.8837 854.9618)" font-family="'TitilliumText25L-250wt'" font-size="9">To view a copy of this license, visit http://creativecommons.org/licenses/by-sa/3.0/</text>
	<text transform="matrix(1.7791 0 0 1.7791 178.4169 854.9618)" font-family="'TitilliumText25L-250wt'" font-size="10"> </text>
	<text transform="matrix(1.7791 0 0 1.7791 -406.8837 874.9766)" font-family="'TitilliumText25L-250wt'" font-size="9">or send a letter to Creative Commons, 171 Second Street, Suite 300, San Francisco, California, 94105, USA.</text>
</a>
<g id="g25400" transform="matrix(0.83432244,0,0,0.83432244,242.1812,154.35087)">
	<g id="g9971" transform="matrix(0.7026078,0,0,-0.7026078,-2047.1135,1073.3221)">
		<g>
			<g>
				<defs>
					<rect id="SVGID_1_" x="4933.234" y="106.456" width="26.875" height="26.875"/>
				</defs>
				<clipPath id="SVGID_2_">
					<use xlink:href="#SVGID_1_"  overflow="visible"/>
				</clipPath>
				<g id="g9973" clip-path="url(#SVGID_2_)">
					<g id="g9975" transform="translate(4946.6187,152.9518)">
						<path id="path9977" inkscape:connector-curvature="0" d="M0-0.002c9.147,0,16.862-3.139,23.141-9.419
							c6.317-6.317,9.477-14.034,9.477-23.14c0-9.149-3.102-16.767-9.304-22.851C16.724-61.884,8.954-65.119,0-65.119
							c-8.798,0-16.433,3.199-22.905,9.592c-6.397,6.397-9.594,14.05-9.594,22.966s3.199,16.629,9.594,23.14
							C-16.628-3.14-8.993-0.002,0-0.002 M0.116-5.872c-7.403,0-13.662-2.599-18.778-7.793c-5.313-5.429-7.966-11.725-7.966-18.895
							c0-7.21,2.635-13.452,7.906-18.723c5.271-5.271,11.552-7.905,18.838-7.905c7.248,0,13.566,2.652,18.955,7.963
							c5.116,4.923,7.675,11.145,7.675,18.665c0,7.402-2.599,13.701-7.792,18.895C13.76-8.471,7.48-5.872,0.116-5.872 M8.839-24.481
							v-13.314h-3.72v-15.813H-5v15.813h-3.722v13.314c0,0.583,0.203,1.076,0.611,1.483c0.405,0.41,0.9,0.613,1.483,0.613H6.745
							c0.543,0,1.026-0.203,1.454-0.613C8.624-23.404,8.839-23.898,8.839-24.481 M-4.475-16.108c0,3.062,1.513,4.595,4.535,4.595
							c3.024,0,4.536-1.533,4.536-4.595c0-3.022-1.514-4.535-4.536-4.535C-2.964-20.642-4.475-19.13-4.475-16.108"/>
					</g>
					<g id="g9979" transform="translate(4896.9019,80.7901)">
						<path id="path9981" inkscape:connector-curvature="0" fill="none" stroke="#000000" stroke-width="0.592" d="M0.001-0.001
							h-31.996 M10.666-10.666v-31.996 M0.001,78.207h-31.996 M10.666,88.873v31.996 M99.541,78.207h31.994 M88.876,88.873v31.996
							 M99.541-0.001h31.994 M88.876-10.666v-31.996"/>
					</g>
				</g>
			</g>
		</g>
	</g>
	<g id="g9983" transform="matrix(0.7026078,0,0,-0.7026078,-2047.1135,1073.3221)">
		<g>
			<g>
				<defs>
					<rect id="SVGID_3_" x="4586.877" y="106.456" width="26.875" height="26.875"/>
				</defs>
				<clipPath id="SVGID_4_">
					<use xlink:href="#SVGID_3_"  overflow="visible"/>
				</clipPath>
				<g id="g9985" clip-path="url(#SVGID_4_)">
					<g id="g9987" transform="translate(4600.2598,152.9518)">
						<path id="path9989" inkscape:connector-curvature="0" d="M0.003-0.002c9.108,0,16.861-3.179,23.255-9.536
							c3.062-3.062,5.388-6.56,6.979-10.495c1.588-3.932,2.382-8.11,2.382-12.528c0-4.458-0.785-8.636-2.354-12.531
							c-1.571-3.895-3.887-7.333-6.948-10.32c-3.179-3.139-6.782-5.543-10.812-7.21c-4.031-1.666-8.198-2.499-12.499-2.499
							c-4.305,0-8.421,0.823-12.356,2.472c-3.935,1.646-7.462,4.028-10.582,7.15c-3.12,3.119-5.494,6.637-7.122,10.552
							c-1.629,3.915-2.442,8.043-2.442,12.384c0,4.301,0.823,8.44,2.472,12.411c1.646,3.975,4.04,7.53,7.177,10.672
							C-16.648-3.16-9.031-0.002,0.003-0.002 M0.118-5.872c-7.443,0-13.702-2.599-18.778-7.793
							c-2.559-2.599-4.526-5.514-5.902-8.749c-1.376-3.239-2.062-6.62-2.062-10.145c0-3.488,0.686-6.85,2.062-10.089
							c1.376-3.235,3.344-6.124,5.902-8.663c2.557-2.539,5.444-4.475,8.663-5.814c3.215-1.336,6.587-2.006,10.115-2.006
							c3.489,0,6.869,0.68,10.147,2.036c3.273,1.356,6.229,3.315,8.866,5.871c5.078,4.961,7.617,11.185,7.617,18.665
							c0,3.605-0.66,7.015-1.977,10.232c-1.316,3.219-3.237,6.084-5.756,8.606C13.78-8.491,7.483-5.872,0.118-5.872 M-0.29-27.153
							l-4.36-2.269c-0.466,0.97-1.038,1.649-1.716,2.036c-0.678,0.386-1.309,0.58-1.889,0.58c-2.907,0-4.361-1.919-4.361-5.754
							c0-1.746,0.368-3.142,1.104-4.188s1.821-1.569,3.257-1.569c1.899,0,3.235,0.931,4.011,2.792l4.012-2.036
							C-1.085-39.151-2.267-40.4-3.78-41.31c-1.508-0.913-3.177-1.368-4.998-1.368c-2.909,0-5.254,0.893-7.035,2.674
							c-1.784,1.784-2.674,4.266-2.674,7.443c0,3.102,0.9,5.561,2.704,7.383c1.802,1.823,4.078,2.732,6.832,2.732
							C-4.923-22.445-2.034-24.014-0.29-27.153 M18.488-27.153l-4.3-2.269c-0.467,0.97-1.04,1.649-1.716,2.036
							c-0.68,0.386-1.329,0.58-1.949,0.58c-2.907,0-4.36-1.919-4.36-5.754c0-1.746,0.368-3.142,1.104-4.188s1.821-1.569,3.255-1.569
							c1.899,0,3.237,0.931,4.01,2.792l4.07-2.036c-0.89-1.589-2.091-2.839-3.602-3.748c-1.514-0.913-3.16-1.368-4.944-1.368
							c-2.944,0-5.301,0.893-7.062,2.674c-1.764,1.783-2.644,4.265-2.644,7.443c0,3.102,0.9,5.561,2.704,7.382
							c1.801,1.824,4.078,2.732,6.832,2.732C13.915-22.445,16.784-24.014,18.488-27.153"/>
					</g>
					<g id="g9991" transform="translate(4550.543,80.7901)">
						<path id="path9993" inkscape:connector-curvature="0" fill="none" stroke="#000000" stroke-width="0.592" d="M0.002-0.001
							h-31.997 M10.666-10.666v-31.996 M0.002,78.207h-31.997 M10.666,88.873v31.996 M99.543,78.207h31.992 M88.877,88.873v31.996
							 M99.543-0.001h31.992 M88.877-10.666v-31.996"/>
					</g>
				</g>
			</g>
		</g>
	</g>
	<g id="g9995" transform="matrix(0.7026078,0,0,-0.7026078,-2047.1135,1073.3221)">
		<g>
			<g>
				<defs>
					<rect id="SVGID_5_" x="4755.487" y="106.456" width="26.876" height="26.875"/>
				</defs>
				<clipPath id="SVGID_6_">
					<use xlink:href="#SVGID_5_"  overflow="visible"/>
				</clipPath>
				<g id="g9997" clip-path="url(#SVGID_6_)">
					<g id="g9999" transform="translate(4768.8687,152.8934)">
						<path id="path10001" inkscape:connector-curvature="0" d="M0-0.003c9.109,0,16.821-3.159,23.14-9.476
							c6.317-6.277,9.477-13.974,9.477-23.083s-3.1-16.742-9.301-22.906C16.764-61.902,8.993-65.117,0-65.117
							c-8.799,0-16.434,3.195-22.906,9.592c-6.397,6.394-9.592,14.05-9.592,22.963c0,8.876,3.195,16.573,9.592,23.083
							C-16.589-3.162-8.954-0.003,0-0.003 M0.117-5.874c-7.402,0-13.664-2.615-18.78-7.85c-5.311-5.388-7.965-11.665-7.965-18.838
							c0-7.247,2.634-13.487,7.906-18.718c5.271-5.274,11.552-7.91,18.838-7.91c7.248,0,13.566,2.655,18.953,7.966
							c5.118,4.961,7.675,11.182,7.675,18.662c0,7.443-2.597,13.724-7.79,18.838C13.799-8.489,7.52-5.874,0.117-5.874
							 M-14.417-27.967c0.62,3.992,2.226,7.082,4.824,9.271c2.595,2.189,5.757,3.285,9.477,3.285c5.116,0,9.186-1.646,12.208-4.941
							c3.024-3.295,4.536-7.52,4.536-12.674c0-5.001-1.571-9.158-4.71-12.471c-3.139-3.314-7.208-4.969-12.209-4.969
							c-3.683,0-6.862,1.103-9.536,3.312c-2.674,2.209-4.283,5.351-4.826,9.419h8.198c0.193-3.952,2.577-5.927,7.152-5.927
							c2.287,0,4.128,0.986,5.522,2.965c1.396,1.976,2.094,4.611,2.094,7.906c0,3.448-0.64,6.074-1.917,7.876
							c-1.281,1.803-3.122,2.704-5.524,2.704c-4.341,0-6.784-1.919-7.327-5.756h2.384l-6.454-6.455l-6.452,6.455H-14.417z"/>
					</g>
					<g id="g10003" transform="translate(4719.1519,80.7901)">
						<path id="path10005" inkscape:connector-curvature="0" fill="none" stroke="#000000" stroke-width="0.592" d="M0.001-0.001
							h-31.996 M10.666-10.666v-31.996 M0.001,78.207h-31.996 M10.666,88.873v31.996 M99.541,78.207h31.994 M88.876,88.873v31.996
							 M99.541-0.001h31.994 M88.876-10.666v-31.996"/>
					</g>
				</g>
			</g>
		</g>
	</g>
	<g id="g10007" transform="matrix(0.7026078,0,0,-0.7026078,-2047.1135,1073.3221)">
		<g>
			<g>
				<defs>
					<rect id="SVGID_7_" x="4839.79" y="106.456" width="26.875" height="26.875"/>
				</defs>
				<clipPath id="SVGID_8_">
					<use xlink:href="#SVGID_7_"  overflow="visible"/>
				</clipPath>
				<g id="g10009" clip-path="url(#SVGID_8_)">
					<g id="g10011" transform="translate(4853.1729,152.8934)">
						<path id="path10013" inkscape:connector-curvature="0" d="M0.001-0.003c9.109,0,16.823-3.159,23.141-9.476
							c6.316-6.277,9.476-13.974,9.476-23.083s-3.102-16.742-9.304-22.906c-6.549-6.434-14.322-9.649-23.313-9.649
							c-8.801,0-16.436,3.195-22.908,9.592c-6.396,6.394-9.594,14.05-9.594,22.963c0,8.876,3.198,16.573,9.594,23.083
							C-16.588-3.162-8.951-0.003,0.001-0.003 M0.116-5.874c-7.402,0-13.662-2.615-18.777-7.85
							c-5.314-5.388-7.966-11.665-7.966-18.838c0-7.247,2.635-13.487,7.906-18.718c5.271-5.274,11.55-7.91,18.837-7.91
							c7.248,0,13.567,2.655,18.956,7.966c5.114,4.961,7.675,11.182,7.675,18.662c0,7.443-2.6,13.724-7.793,18.838
							C13.798-8.489,7.521-5.874,0.116-5.874 M21.338-33.142l0.64-0.29v-9.186l-0.58-0.293l-7.906-3.372l-0.35-0.118l-0.406,0.118
							L-4.3-39.246l-0.581,0.233l-8.429-3.493l-8.316,3.605v8.375l7.793,3.254l-0.06,0.06v9.188l8.839,3.895l19.941-8.256v-8.08
							L21.338-33.142z M12.094-43.84v5.757h-0.057v0.233l-14.943,6.104v-5.931l14.943-6.164v0.06L12.094-43.84z M13.082-36.28
							l5.234,2.149l-4.824,2.036l-5.118-2.151L13.082-36.28z M19.942-41.281v5.641l-5.814-2.442v-5.697L19.942-41.281z"/>
					</g>
					<g id="g10015" transform="translate(4803.4561,80.7901)">
						<path id="path10017" inkscape:connector-curvature="0" fill="none" stroke="#000000" stroke-width="0.592" d="M0-0.001
							h-31.994 M10.667-10.666v-31.996 M0,78.207h-31.994 M10.667,88.873v31.996 M99.542,78.207h31.996 M88.877,88.873v31.996
							 M99.542-0.001h31.996 M88.877-10.666v-31.996"/>
					</g>
				</g>
			</g>
		</g>
	</g>
	<g id="g10019" transform="matrix(0.7026078,0,0,-0.7026078,-2047.1135,1073.3221)">
		<g>
			<g>
				<defs>
					<rect id="SVGID_9_" x="4671.183" y="106.456" width="26.875" height="26.875"/>
				</defs>
				<clipPath id="SVGID_10_">
					<use xlink:href="#SVGID_9_"  overflow="visible"/>
				</clipPath>
				<g id="g10021" clip-path="url(#SVGID_10_)">
					<g id="g10023" transform="translate(4684.5645,152.8934)">
						<path id="path10025" inkscape:connector-curvature="0" d="M0.002-0.003c9.108,0,16.821-3.159,23.14-9.476
							c6.317-6.277,9.477-13.974,9.477-23.083s-3.1-16.742-9.302-22.906c-6.55-6.434-14.322-9.649-23.314-9.649
							c-8.799,0-16.434,3.195-22.906,9.592c-6.397,6.394-9.594,14.05-9.594,22.963c0,8.876,3.197,16.573,9.594,23.083
							C-16.59-3.162-8.954-0.003,0.002-0.003 M0.117-5.874c-7.405,0-13.664-2.615-18.78-7.85
							c-5.311-5.388-7.965-11.665-7.965-18.838c0-7.247,2.634-13.487,7.906-18.718c5.271-5.274,11.55-7.91,18.838-7.91
							c7.247,0,13.566,2.655,18.953,7.966c5.118,4.961,7.675,11.182,7.675,18.662c0,7.443-2.597,13.724-7.793,18.838
							C13.799-8.489,7.519-5.874,0.117-5.874 M13.373-23.259c0.503,0,0.931-0.173,1.279-0.52c0.348-0.352,0.523-0.776,0.523-1.284
							v-23.953c0-0.503-0.175-0.93-0.523-1.279c-0.348-0.347-0.776-0.523-1.279-0.523H-4.359c-0.505,0-0.93,0.178-1.278,0.523
							c-0.35,0.35-0.523,0.776-0.523,1.279v7.093h-7.094c-0.505,0-0.931,0.173-1.279,0.523s-0.523,0.776-0.523,1.279v23.953
							c0,0.466,0.155,0.863,0.465,1.193c0.31,0.33,0.7,0.533,1.164,0.61h0.175H4.477c0.503,0,0.931-0.173,1.279-0.523
							c0.35-0.35,0.523-0.776,0.523-1.279v-7.092H13.373z M-11.511-38.373h5.349v13.311c0,0.466,0.155,0.863,0.465,1.193
							c0.31,0.33,0.678,0.533,1.104,0.61h0.233h7.093v5.294h-14.245V-38.373L-11.511-38.373z M11.63-26.804H-2.615v-20.407H11.63
							V-26.804z"/>
					</g>
					<g id="g10027" transform="translate(4634.8477,80.7901)">
						<path id="path10029" inkscape:connector-curvature="0" fill="none" stroke="#000000" stroke-width="0.592" d="M0.001-0.001
							h-31.996 M10.665-10.666v-31.996 M0.001,78.207h-31.996 M10.665,88.873v31.996 M99.54,78.207h31.997 M88.875,88.873v31.996
							 M99.54-0.001h31.997 M88.875-10.666v-31.996"/>
					</g>
				</g>
			</g>
		</g>
	</g>
</g>
<g id="text2993" transform="translate(-54.489215,-280.29548)" inkscape:export-ydpi="100.01622" inkscape:export-xdpi="100.01622" inkscape:export-filename="/Users/massimomenichinelli/Dropbox/openp2pdesign.org/2013/Cava dei Tirreni/toolkit/logo.png">
	<path id="path2998" inkscape:connector-curvature="0" d="M102.586,358.348c-1.68,0-3.264-0.312-4.752-0.936
		c-1.44-0.624-2.712-1.488-3.816-2.592s-1.968-2.376-2.592-3.816c-0.624-1.488-0.936-3.072-0.936-4.752v-24.48
		c0-1.68,0.312-3.24,0.936-4.68c0.624-1.488,1.488-2.784,2.592-3.888s2.376-1.968,3.816-2.592c1.488-0.624,3.072-0.936,4.752-0.936
		c1.68,0,3.24,0.312,4.68,0.936c1.488,0.624,2.784,1.488,3.888,2.592s1.968,2.4,2.592,3.888c0.624,1.44,0.936,3,0.936,4.68v24.48
		c0,1.68-0.312,3.264-0.936,4.752c-0.624,1.44-1.488,2.712-2.592,3.816s-2.4,1.968-3.888,2.592
		C105.825,358.036,104.265,358.348,102.586,358.348 M102.586,316.588c-1.44,0-2.664,0.504-3.672,1.512s-1.512,2.232-1.512,3.672
		v24.48c0,1.44,0.504,2.664,1.512,3.672c1.008,1.008,2.232,1.512,3.672,1.512s2.664-0.504,3.672-1.512
		c1.008-1.008,1.512-2.232,1.512-3.672v-24.48c0-1.44-0.504-2.664-1.512-3.672C105.249,317.092,104.025,316.588,102.586,316.588"/>
	<path id="path3000" inkscape:connector-curvature="0" d="M124.622,372.532c-0.912,0-1.68-0.312-2.304-0.936
		s-0.936-1.392-0.936-2.304V326.38c0-0.912,0.312-1.68,0.936-2.304s1.392-0.936,2.304-0.936h7.2c1.44,0,2.784,0.288,4.032,0.864
		c1.296,0.528,2.4,1.272,3.312,2.232c0.96,0.912,1.704,2.016,2.232,3.312c0.576,1.248,0.864,2.592,0.864,4.032v13.824
		c0,1.44-0.288,2.808-0.864,4.104c-0.528,1.248-1.272,2.352-2.232,3.312c-0.912,0.912-2.016,1.632-3.312,2.16
		c-1.248,0.576-2.592,0.864-4.032,0.864h-3.96v11.448c0,0.912-0.312,1.68-0.936,2.304
		C126.302,372.22,125.534,372.532,124.622,372.532 M135.782,333.58c0-1.104-0.384-2.04-1.152-2.808s-1.704-1.152-2.808-1.152h-3.96
		v21.744h3.96c1.104,0,2.04-0.384,2.808-1.152s1.152-1.704,1.152-2.808V333.58"/>
	<path id="path3002" inkscape:connector-curvature="0" d="M154.982,357.34c-2.016-0.816-3.6-2.088-4.752-3.816
		c-1.152-1.729-1.728-3.672-1.728-5.832v-14.4c0-1.44,0.264-2.784,0.792-4.032c0.576-1.296,1.32-2.4,2.232-3.312
		c0.96-0.96,2.064-1.704,3.312-2.232c1.296-0.576,2.664-0.864,4.104-0.864s2.784,0.288,4.032,0.864
		c1.296,0.528,2.4,1.272,3.312,2.232c0.96,0.912,1.704,2.016,2.232,3.312c0.576,1.248,0.864,2.592,0.864,4.032v7.2
		c0,0.912-0.312,1.68-0.936,2.304c-0.624,0.624-1.392,0.937-2.304,0.937h-11.16v3.96c0,0.816,0.216,1.56,0.648,2.232
		c0.432,0.624,1.032,1.104,1.8,1.44c0.768,0.288,1.536,0.36,2.304,0.216s1.44-0.504,2.016-1.08c0.624-0.672,1.368-1.008,2.232-1.008
		c0.912,0,1.704,0.336,2.376,1.008c0.624,0.672,0.936,1.44,0.936,2.304c0,0.864-0.312,1.632-0.936,2.304
		c-1.536,1.488-3.336,2.424-5.4,2.808C158.942,358.348,156.95,358.156,154.982,357.34 M158.942,329.332
		c-1.104,0-2.04,0.384-2.808,1.152c-0.768,0.768-1.152,1.704-1.152,2.808v3.96h7.92v-3.96c0-1.104-0.384-2.04-1.152-2.808
		S160.046,329.332,158.942,329.332"/>
	<path id="path3004" inkscape:connector-curvature="0" d="M179.044,358.132c-0.912,0-1.68-0.312-2.304-0.936
		s-0.936-1.392-0.936-2.304V326.38c0-0.912,0.312-1.68,0.936-2.304s1.392-0.936,2.304-0.936h7.2c1.44,0,2.784,0.288,4.032,0.864
		c1.296,0.528,2.4,1.272,3.312,2.232c0.96,0.912,1.704,2.016,2.232,3.312c0.576,1.248,0.864,2.592,0.864,4.032v21.312
		c0,0.912-0.336,1.68-1.008,2.304c-0.624,0.624-1.368,0.937-2.232,0.937c-0.912,0-1.68-0.312-2.304-0.937s-0.936-1.392-0.936-2.304
		V333.58c0-1.104-0.384-2.04-1.152-2.808c-0.768-0.768-1.704-1.152-2.808-1.152h-3.96v25.272c0,0.912-0.336,1.68-1.008,2.304
		C180.652,357.82,179.908,358.132,179.044,358.132"/>
	<path id="path3006" inkscape:connector-curvature="0" d="M221.09,358.348c-0.96,0-1.776-0.336-2.448-1.008
		c-0.672-0.672-1.008-1.488-1.008-2.448v-41.76c0-0.816,0.24-1.536,0.72-2.16s1.128-1.032,1.944-1.224
		c0.816-0.192,1.584-0.096,2.304,0.288c0.72,0.336,1.248,0.888,1.584,1.656c0.96,2.112,1.944,4.2,2.952,6.264
		c0.816,1.824,1.728,3.768,2.736,5.832c1.008,2.016,1.92,3.912,2.736,5.688c0.816-1.776,1.704-3.672,2.664-5.688
		c1.008-2.064,1.92-4.008,2.736-5.832c0.96-2.064,1.944-4.152,2.952-6.264c0.384-0.768,0.912-1.32,1.584-1.656
		c0.72-0.384,1.488-0.48,2.304-0.288s1.464,0.6,1.944,1.224c0.528,0.624,0.792,1.344,0.792,2.16v41.76
		c0,0.96-0.336,1.776-1.008,2.448c-0.672,0.672-1.488,1.008-2.448,1.008s-1.776-0.336-2.448-1.008
		c-0.672-0.672-1.008-1.488-1.008-2.448v-26.28c-0.624,1.296-1.224,2.568-1.8,3.816s-1.104,2.352-1.584,3.312
		c-0.528,1.152-1.056,2.256-1.584,3.312c-0.288,0.624-0.72,1.128-1.296,1.512c-0.528,0.336-1.128,0.504-1.8,0.504
		c-1.488,0-2.544-0.672-3.168-2.016c-0.528-1.056-1.056-2.16-1.584-3.312c-0.48-0.96-1.008-2.063-1.584-3.312
		c-0.576-1.248-1.152-2.52-1.728-3.816v26.28c0,0.96-0.336,1.776-1.008,2.448C222.867,358.012,222.05,358.348,221.09,358.348"/>
	<path id="path3008" inkscape:connector-curvature="0" d="M260.873,357.34c-2.016-0.816-3.6-2.088-4.752-3.816
		c-1.152-1.729-1.728-3.672-1.728-5.832v-14.4c0-1.44,0.264-2.784,0.792-4.032c0.576-1.296,1.32-2.4,2.232-3.312
		c0.96-0.96,2.064-1.704,3.312-2.232c1.296-0.576,2.664-0.864,4.104-0.864s2.784,0.288,4.032,0.864
		c1.296,0.528,2.4,1.272,3.312,2.232c0.96,0.912,1.704,2.016,2.232,3.312c0.576,1.248,0.864,2.592,0.864,4.032v7.2
		c0,0.912-0.312,1.68-0.936,2.304s-1.392,0.937-2.304,0.937h-11.16v3.96c0,0.816,0.216,1.56,0.648,2.232
		c0.432,0.624,1.032,1.104,1.8,1.44c0.768,0.288,1.536,0.36,2.304,0.216s1.44-0.504,2.016-1.08c0.624-0.672,1.368-1.008,2.232-1.008
		c0.912,0,1.704,0.336,2.376,1.008c0.624,0.672,0.936,1.44,0.936,2.304c0,0.864-0.312,1.632-0.936,2.304
		c-1.536,1.488-3.336,2.424-5.4,2.808C264.833,358.348,262.841,358.156,260.873,357.34 M264.833,329.332
		c-1.104,0-2.04,0.384-2.808,1.152s-1.152,1.704-1.152,2.808v3.96h7.92v-3.96c0-1.104-0.384-2.04-1.152-2.808
		S265.937,329.332,264.833,329.332"/>
	<path id="path3010" inkscape:connector-curvature="0" d="M281.766,329.62c-0.912,0-1.68-0.312-2.304-0.936
		s-0.936-1.392-0.936-2.304c0-0.912,0.312-1.68,0.936-2.304s1.392-0.936,2.304-0.936h2.52v-11.448c0-0.912,0.312-1.68,0.936-2.304
		s1.392-0.936,2.304-0.936c0.912,0,1.68,0.312,2.304,0.936s0.936,1.392,0.936,2.304v11.448h3.96c0.912,0,1.68,0.312,2.304,0.936
		s0.936,1.392,0.936,2.304c0,0.912-0.312,1.68-0.936,2.304s-1.392,0.936-2.304,0.936h-3.96v18.072c0,1.104,0.384,2.04,1.152,2.808
		s1.704,1.152,2.808,1.152c0.912,0,1.68,0.312,2.304,0.936c0.624,0.624,0.936,1.392,0.936,2.304s-0.312,1.68-0.936,2.304
		c-0.624,0.624-1.392,0.936-2.304,0.936c-1.44,0-2.808-0.288-4.104-0.864c-1.248-0.528-2.352-1.248-3.312-2.16
		c-0.912-0.96-1.656-2.064-2.232-3.312c-0.528-1.296-0.792-2.664-0.792-4.104V329.62H281.766L281.766,329.62"/>
	<path id="path3012" inkscape:connector-curvature="0" d="M314.589,336.964v-3.816c0-0.768-0.216-1.464-0.648-2.088
		c-0.432-0.672-1.008-1.152-1.728-1.44c-0.72-0.288-1.464-0.36-2.232-0.216c-0.768,0.144-1.416,0.504-1.944,1.08
		c-0.624,0.624-1.392,0.936-2.304,0.936c-0.864,0-1.608-0.312-2.232-0.936c-0.672-0.672-1.008-1.44-1.008-2.304
		c0-0.864,0.336-1.632,1.008-2.304c1.488-1.488,3.24-2.424,5.256-2.808c2.016-0.432,3.984-0.24,5.904,0.576
		c1.968,0.816,3.528,2.088,4.68,3.816c1.152,1.68,1.728,3.576,1.728,5.688v21.456c0,0.912-0.312,1.68-0.936,2.304
		s-1.392,0.936-2.304,0.936h-7.2c-1.44,0-2.808-0.288-4.104-0.864c-1.248-0.528-2.352-1.248-3.312-2.16
		c-0.912-0.96-1.656-2.064-2.232-3.312c-0.528-1.296-0.792-2.664-0.792-4.104s0.264-2.784,0.792-4.032
		c0.576-1.296,1.32-2.4,2.232-3.312c0.96-0.96,2.064-1.704,3.312-2.232c1.296-0.576,2.664-0.864,4.104-0.864H314.589
		 M310.629,343.444c-1.104,0-2.04,0.384-2.808,1.152c-0.768,0.768-1.152,1.704-1.152,2.808c0,1.104,0.384,2.04,1.152,2.808
		c0.768,0.768,1.704,1.152,2.808,1.152h3.96v-7.92H310.629"/>
	<path id="path3014" inkscape:connector-curvature="0" d="M340.262,309.964c1.68,0,3.24,0.312,4.68,0.937
		c1.488,0.624,2.784,1.488,3.888,2.592s1.968,2.4,2.592,3.888c0.624,1.44,0.936,3,0.936,4.68v23.904c0,1.68-0.312,3.264-0.936,4.752
		c-0.624,1.439-1.488,2.712-2.592,3.816s-2.4,1.968-3.888,2.592c-1.44,0.624-3,0.936-4.68,0.936h-8.64
		c-0.96,0-1.776-0.336-2.448-1.008c-0.672-0.672-1.008-1.488-1.008-2.448V313.42c0-0.96,0.336-1.775,1.008-2.448
		c0.672-0.672,1.488-1.008,2.448-1.008H340.262 M345.446,322.06c0-1.44-0.504-2.664-1.512-3.672
		c-1.008-1.008-2.232-1.512-3.672-1.512h-5.184v34.272h5.184c1.44,0,2.664-0.504,3.672-1.512c1.008-1.008,1.512-2.232,1.512-3.672
		V322.06"/>
	<path id="path3016" inkscape:connector-curvature="0" d="M364.795,357.34c-2.017-0.816-3.601-2.088-4.752-3.816
		c-1.152-1.729-1.728-3.672-1.728-5.832v-14.4c0-1.44,0.264-2.784,0.792-4.032c0.576-1.296,1.32-2.4,2.232-3.312
		c0.96-0.96,2.063-1.704,3.312-2.232c1.296-0.576,2.664-0.864,4.104-0.864s2.783,0.288,4.031,0.864
		c1.297,0.528,2.4,1.272,3.312,2.232c0.96,0.912,1.704,2.016,2.232,3.312c0.575,1.248,0.863,2.592,0.863,4.032v7.2
		c0,0.912-0.312,1.68-0.937,2.304s-1.393,0.937-2.304,0.937h-11.16v3.96c0,0.816,0.216,1.56,0.647,2.232
		c0.433,0.624,1.031,1.104,1.8,1.44c0.769,0.288,1.536,0.36,2.305,0.216s1.439-0.504,2.017-1.08
		c0.623-0.672,1.367-1.008,2.231-1.008c0.912,0,1.704,0.336,2.376,1.008c0.624,0.672,0.937,1.44,0.937,2.304
		c0,0.864-0.312,1.632-0.937,2.304c-1.536,1.488-3.336,2.424-5.4,2.808C368.755,358.348,366.763,358.156,364.795,357.34
		 M368.755,329.332c-1.104,0-2.04,0.384-2.809,1.152s-1.151,1.704-1.151,2.808v3.96h7.92v-3.96c0-1.104-0.384-2.04-1.151-2.808
		C370.795,329.716,369.858,329.332,368.755,329.332"/>
	<path id="path3018" inkscape:connector-curvature="0" d="M395.408,350.716c0.864-0.72,1.248-1.656,1.151-2.808
		c-0.097-1.2-0.575-2.088-1.439-2.664l-6.769-4.68c-1.199-0.864-2.159-1.92-2.881-3.168c-0.72-1.296-1.128-2.688-1.224-4.176
		c-0.096-1.488,0.12-2.904,0.648-4.248c0.574-1.392,1.415-2.592,2.52-3.6c1.104-0.96,2.353-1.656,3.744-2.088
		c1.391-0.432,2.832-0.528,4.32-0.288c1.438,0.24,2.76,0.768,3.96,1.584c1.198,0.816,2.184,1.872,2.95,3.168
		c0.434,0.768,0.528,1.584,0.288,2.448c-0.19,0.864-0.694,1.512-1.512,1.944c-0.768,0.432-1.584,0.552-2.448,0.36
		c-0.863-0.24-1.512-0.744-1.942-1.512c-0.528-0.912-1.296-1.44-2.306-1.584c-0.96-0.192-1.848,0.072-2.664,0.792
		c-0.814,0.672-1.176,1.536-1.079,2.592c0.097,1.008,0.553,1.824,1.367,2.448l6.696,4.68c1.248,0.912,2.232,2.016,2.952,3.312
		c0.768,1.296,1.2,2.712,1.296,4.248s-0.145,3-0.72,4.392c-0.528,1.392-1.368,2.616-2.521,3.672
		c-1.104,1.008-2.376,1.728-3.814,2.16c-1.44,0.432-2.93,0.528-4.465,0.288c-1.535-0.24-2.929-0.768-4.177-1.584
		c-1.199-0.864-2.184-1.968-2.951-3.312c-0.433-0.768-0.553-1.584-0.359-2.448c0.24-0.864,0.744-1.512,1.512-1.944
		c0.816-0.432,1.656-0.528,2.521-0.288c0.862,0.192,1.512,0.672,1.942,1.44c0.528,1.008,1.368,1.584,2.521,1.728
		C393.584,351.772,394.544,351.484,395.408,350.716"/>
	<path id="path3020" inkscape:connector-curvature="0" d="M412.483,319.252c-1.104,0-2.04-0.384-2.81-1.152
		c-0.768-0.768-1.15-1.704-1.15-2.808s0.384-2.04,1.15-2.808c0.77-0.768,1.704-1.152,2.81-1.152c1.104,0,2.04,0.384,2.808,1.152
		s1.152,1.704,1.152,2.808s-0.385,2.04-1.152,2.808S413.585,319.252,412.483,319.252 M415.721,354.892
		c0,0.912-0.312,1.68-0.936,2.304s-1.393,0.936-2.304,0.936c-0.912,0-1.682-0.312-2.306-0.936s-0.936-1.392-0.936-2.304v-28.8
		c0-0.912,0.312-1.68,0.936-2.304s1.394-0.936,2.306-0.936c0.911,0,1.68,0.312,2.304,0.936s0.936,1.392,0.936,2.304V354.892"/>
	<path id="path3022" inkscape:connector-curvature="0" d="M433.161,357.844c-1.44,0-2.809-0.288-4.104-0.864
		c-1.248-0.528-2.352-1.248-3.312-2.16c-0.912-0.96-1.656-2.064-2.232-3.312c-0.527-1.296-0.792-2.664-0.792-4.104V333.58
		c0-1.44,0.266-2.784,0.792-4.032c0.576-1.296,1.32-2.4,2.232-3.312c0.96-0.96,2.062-1.704,3.312-2.232
		c1.296-0.576,2.664-0.864,4.104-0.864h7.2c0.911,0,1.68,0.312,2.304,0.936c0.624,0.624,0.936,1.392,0.936,2.304v35.712
		c0,2.16-0.575,4.104-1.728,5.832c-1.152,1.729-2.712,3-4.681,3.816c-2.017,0.816-4.057,1.008-6.119,0.576
		c-2.018-0.384-3.77-1.32-5.257-2.808c-0.672-0.672-1.009-1.44-1.009-2.304c0-0.864,0.337-1.632,1.009-2.304
		c0.624-0.672,1.368-1.008,2.231-1.008c0.912,0,1.681,0.336,2.305,1.008c0.575,0.576,1.247,0.936,2.017,1.08
		c0.814,0.144,1.584,0.072,2.304-0.216c0.769-0.336,1.368-0.84,1.8-1.512c0.434-0.624,0.648-1.344,0.648-2.16v-4.248H433.161
		 M433.161,329.62c-1.104,0-2.04,0.384-2.809,1.152s-1.151,1.704-1.151,2.808v13.824c0,1.104,0.384,2.04,1.151,2.808
		c0.769,0.768,1.703,1.152,2.809,1.152h3.96V329.62H433.161"/>
	<path id="path3024" inkscape:connector-curvature="0" d="M454.388,358.132c-0.912,0-1.681-0.312-2.305-0.936
		s-0.936-1.392-0.936-2.304V326.38c0-0.912,0.312-1.68,0.936-2.304s1.393-0.936,2.305-0.936h7.199c1.44,0,2.784,0.288,4.032,0.864
		c1.296,0.528,2.399,1.272,3.312,2.232c0.96,0.912,1.704,2.016,2.231,3.312c0.576,1.248,0.864,2.592,0.864,4.032v21.312
		c0,0.912-0.336,1.68-1.008,2.304c-0.624,0.624-1.368,0.937-2.232,0.937c-0.912,0-1.68-0.312-2.304-0.937s-0.937-1.392-0.937-2.304
		V333.58c0-1.104-0.385-2.04-1.151-2.808c-0.77-0.768-1.704-1.152-2.81-1.152h-3.96v25.272c0,0.912-0.336,1.68-1.008,2.304
		C455.995,357.82,455.251,358.132,454.388,358.132"/>
</g>
<text transform="matrix(1 0 0 1 494.0231 77.9531)" font-family="'TitilliumText25L-600wt'" font-size="40">System Map</text>
<text transform="matrix(1 0 0 1 425.1969 77.9531)" font-family="'TitilliumText25L-600wt'" font-size="20">0.1</text>
<rect id="rect25259" x="35.433" y="113.386" fill="#F2F2F2" stroke="#000000" stroke-width="1.7908" stroke-linejoin="round" width="1417.323" height="832.677"/>
<text transform="matrix(1 0 0 1 35.4332 1008.9287)" font-family="'TitilliumText25L-600wt'" font-size="14">Designed by:</text>
<text transform="matrix(1 0 0 1 36.7633 973.4961)" font-family="'TitilliumText25L-600wt'" font-size="14">Project:</text>
<text transform="matrix(1 0 0 1 407.4806 973.4961)" font-family="'TitilliumText25L-600wt'" font-size="14">Link:</text>
<text transform="matrix(1 0 0 1 406.6774 1008.9287)" font-family="'TitilliumText25L-600wt'" font-size="14">Designed for:</text>
<path id="path25277" inkscape:connector-curvature="0" sodipodi:nodetypes="cc" fill="none" stroke="#CFCFCF" stroke-width="1.4127" stroke-dasharray="1.4127,4.238" d="
	M90.619,973.496c246.404,0,299.145,0,299.145,0"/>
<path id="path25279" inkscape:connector-curvature="0" sodipodi:nodetypes="cc" fill="none" stroke="#CFCFCF" stroke-width="1.5027" stroke-dasharray="1.5027,4.508" d="
	M442.865,973.496c298.713,0,318.944,0,318.944,0"/>
<path id="path25281" inkscape:connector-curvature="0" sodipodi:nodetypes="cc" fill="none" stroke="#CFCFCF" stroke-width="1.3717" stroke-dasharray="1.3717,4.1152" d="
	M121.692,1008.929c232.333,0,268.072,0,268.072,0"/>
<path id="path25301" inkscape:connector-curvature="0" sodipodi:nodetypes="cc" fill="none" stroke="#CFCFCF" stroke-width="1.3717" stroke-dasharray="1.3717,4.1152" d="
	M495.239,1008.929c232.333,0,267.929,0,267.929,0"/>
<a id="a3150" xlink:href="http://www.mepss.nl/index.php?p=tool&amp;l4=W21"  xlink:title="http://www.mepss.nl/index.php?p=tool&amp;l4=W21">
	<text transform="matrix(1 0 0 1 799.5275 1010.1348)" font-family="'TitilliumText25L-250wt'" font-size="9">Original development of the System Map: http://www.mepss.nl/index.php?p=tool&amp;l4=W21</text>
</a>
<text transform="matrix(1 0 0 1 1004.8322 272.2998)" font-family="'TitilliumText25L-800wt'" font-size="15">Boundaries of the Activity</text>
<rect id="rect3155" x="415.772" y="285.104" opacity="0.5" fill="#FFFFFF" stroke="#000000" stroke-width="7.0866" width="761.811" height="442.913"/>
<path fill="#FFFFFF" stroke="#000000" stroke-width="7.0866" enable-background="new    " d="M0,0"/>
<path fill="#FFFFFF" stroke="#000000" stroke-width="7.0866" enable-background="new    " d="M0,0"/>
<path fill="#FFFFFF" stroke="#000000" stroke-width="7.0866" enable-background="new    " d="M0,0"/>
<path fill="#FFFFFF" stroke="#000000" stroke-width="7.0866" enable-background="new    " d="M0,0"/>
<path fill="#FFFFFF" stroke="#000000" stroke-width="7.0866" enable-background="new    " d="M0,0"/>
<path fill="#FFFFFF" stroke="#000000" stroke-width="7.0866" enable-background="new    " d="M0,0"/>
<g id="layer2" inkscape:label="Editable text" inkscape:groupmode="layer">
	<text transform="matrix(1 0 0 1 119.6705 1008.9297)" font-family="'TitilliumText25L-250wt'" font-size="14">IDBM Storaenso Team </text>
	<text transform="matrix(1 0 0 1 88.5826 973.4961)" font-family="'TitilliumText25L-250wt'" font-size="14">Physical Cloud</text>
	<text transform="matrix(1 0 0 1 440.8932 973.4961)" font-family="'TitilliumText25L-250wt'" font-size="14">www.IDBM.fi</text>
	<text transform="matrix(1 0 0 1 493.8116 1008.9297)" font-family="'TitilliumText25L-250wt'" font-size="14">Design open innovation / Helsinki / Alto Uni</text>
</g>
<path id="path4266" fill="#2AEA9C" d="M421.906,885.03l-18.391,10.629v-21.26L421.906,885.03z"/>
<path id="path4112" inkscape:connector-curvature="0" stroke="#000000" d="M409.64,885.03"/>
<path id="path4266_1_" fill="#818181" d="M795.107,889.024l-18.39,10.631v-21.261L795.107,889.024z"/>
<path id="path4932" inkscape:connector-curvature="0" opacity="0.5" stroke="#000000" enable-background="new    " d="
	M782.84,889.024"/>
<text transform="matrix(1 0 0 1 354.4005 830.0664)" font-family="'TitilliumText25L-800wt'" font-size="11">Material flow</text>
<path id="path4203" fill="#54B5FF" d="M544.006,880.451h-7.087l0.001,7.086l7.086,0.001V880.451z"/>
<path id="path4934" inkscape:connector-curvature="0" stroke="#000000" d="M540.464,883.995"/>
<path id="path4203_1_" fill="#828282" d="M917.206,884.447l-7.086-0.001v7.087h7.087L917.206,884.447z"/>
<path id="path4936" inkscape:connector-curvature="0" opacity="0.5" fill="#818181" enable-background="new    " d="
	M913.663,887.989"/>
<text transform="matrix(1 0 0 1 475.5035 830.0664)" font-family="'TitilliumText25L-800wt'" font-size="11">Information flow</text>
<path id="path4185" fill="#FF987F" d="M674.43,883.923c0,2.935-2.381,5.314-5.313,5.314c-2.934,0-5.315-2.381-5.315-5.314
	c0-2.933,2.382-5.313,5.315-5.313C672.049,878.609,674.43,880.989,674.43,883.923z"/>
<path id="path4938" inkscape:connector-curvature="0" stroke="#000000" d="M669.222,883.923"/>
<path id="path4185_1_" fill="#828282" d="M1047.629,887.917c0,2.934-2.381,5.316-5.313,5.316c-2.934,0-5.314-2.384-5.314-5.316
	s2.381-5.314,5.314-5.314C1045.248,882.603,1047.629,884.983,1047.629,887.917z"/>
<path id="path4940" inkscape:connector-curvature="0" opacity="0.5" fill="#818181" enable-background="new    " d="
	M1042.422,887.917"/>
<text transform="matrix(1 0 0 1 366.1588 908.0664)" font-family="'TitilliumText25L-400wt'" font-size="10">Core flow</text>
<text transform="matrix(1 0 0 1 495.5114 908.0664)" font-family="'TitilliumText25L-400wt'" font-size="10">Core flow</text>
<text transform="matrix(1 0 0 1 624.0363 908.0664)" font-family="'TitilliumText25L-400wt'" font-size="10">Core flow</text>
<text transform="matrix(1 0 0 1 724.3492 913.4785)" font-family="'TitilliumText25L-400wt'" font-size="10">Back-office flow</text>
<text transform="matrix(1 0 0 1 853.7023 913.4785)" font-family="'TitilliumText25L-400wt'" font-size="10">Back-office flow</text>
<text transform="matrix(1 0 0 1 982.2257 913.4785)" font-family="'TitilliumText25L-400wt'" font-size="10">Back-office flow</text>
<polyline fill="none" stroke="#828282" stroke-width="9.9213" stroke-miterlimit="10" points="736.24,869.066 736.24,889.025 
	785.911,889.025 "/>
<g>
	<g>
		
			<line fill="none" stroke="#828282" stroke-width="2.8346" stroke-linejoin="round" x1="858.982" y1="869.066" x2="858.982" y2="870.483"/>
		
			<line fill="none" stroke="#828282" stroke-width="2.8346" stroke-linejoin="round" stroke-dasharray="2.4463,2.4463" x1="858.982" y1="872.929" x2="858.982" y2="886.385"/>
		<polyline fill="none" stroke="#828282" stroke-width="2.8346" stroke-linejoin="round" points="858.982,887.608 858.982,889.025 
			860.4,889.025 		"/>
		
			<line fill="none" stroke="#828282" stroke-width="2.8346" stroke-linejoin="round" stroke-dasharray="2.7551,2.7551" x1="863.152" y1="889.025" x2="905.859" y2="889.025"/>
		
			<line fill="none" stroke="#828282" stroke-width="2.8346" stroke-linejoin="round" x1="907.234" y1="889.025" x2="908.652" y2="889.025"/>
	</g>
</g>
<polyline fill="none" stroke="#828282" stroke-width="4.252" stroke-linecap="round" stroke-linejoin="round" stroke-miterlimit="10" stroke-dasharray="1.4173,11.3386" points="
	987.328,869.066 987.328,889.025 1037,889.025 "/>
<polyline fill="none" stroke="#7F7F7F" stroke-width="9.9213" stroke-miterlimit="10" points="728.674,869.066 728.674,889.025 
	778.345,889.025 "/>
<polyline fill="none" stroke="#2AEA9C" stroke-width="9.9213" stroke-miterlimit="10" points="363.04,864.42 363.04,884.379 
	412.712,884.379 "/>
<g>
	<g>
		
			<line fill="none" stroke="#54B5FF" stroke-width="2.8346" stroke-linejoin="round" x1="485.781" y1="864.42" x2="485.781" y2="865.837"/>
		
			<line fill="none" stroke="#54B5FF" stroke-width="2.8346" stroke-linejoin="round" stroke-dasharray="2.4463,2.4463" x1="485.781" y1="868.283" x2="485.781" y2="881.738"/>
		<polyline fill="none" stroke="#54B5FF" stroke-width="2.8346" stroke-linejoin="round" points="485.781,882.962 485.781,884.379 
			487.198,884.379 		"/>
		
			<line fill="none" stroke="#54B5FF" stroke-width="2.8346" stroke-linejoin="round" stroke-dasharray="2.7551,2.7551" x1="489.953" y1="884.379" x2="532.657" y2="884.379"/>
		
			<line fill="none" stroke="#54B5FF" stroke-width="2.8346" stroke-linejoin="round" x1="534.035" y1="884.379" x2="535.452" y2="884.379"/>
	</g>
</g>
<g>
	<g>
		
			<line fill="none" stroke="#A6A6A6" stroke-width="2.8346" stroke-linejoin="round" x1="858.982" y1="869.066" x2="858.982" y2="870.483"/>
		
			<line fill="none" stroke="#A6A6A6" stroke-width="2.8346" stroke-linejoin="round" stroke-dasharray="2.4463,2.4463" x1="858.982" y1="872.929" x2="858.982" y2="886.385"/>
		<polyline fill="none" stroke="#A6A6A6" stroke-width="2.8346" stroke-linejoin="round" points="858.982,887.608 858.982,889.025 
			860.4,889.025 		"/>
		
			<line fill="none" stroke="#A6A6A6" stroke-width="2.8346" stroke-linejoin="round" stroke-dasharray="2.7551,2.7551" x1="863.152" y1="889.025" x2="905.859" y2="889.025"/>
		
			<line fill="none" stroke="#A6A6A6" stroke-width="2.8346" stroke-linejoin="round" x1="907.234" y1="889.025" x2="908.652" y2="889.025"/>
	</g>
</g>
<polyline fill="none" stroke="#FF987F" stroke-width="2.8346" stroke-linecap="round" stroke-linejoin="round" stroke-miterlimit="10" stroke-dasharray="1.4173,11.3386" points="
	614.129,864.42 614.129,884.379 663.8,884.379 "/>
<polyline fill="none" stroke="#A6A6A6" stroke-width="1.4173" stroke-linecap="round" stroke-linejoin="round" stroke-dasharray="1.4173,11.3386" points="
	987.328,869.066 987.328,889.025 1037,889.025 "/>
<text transform="matrix(1 0 0 1 612.3771 830.0664)" font-family="'TitilliumText25L-800wt'" font-size="11">Financial flow</text>
<text transform="matrix(1 0 0 1 720.7614 830.0664)" font-family="'TitilliumText25L-800wt'" font-size="11">Material flow</text>
<text transform="matrix(1 0 0 1 841.8644 830.0664)" font-family="'TitilliumText25L-800wt'" font-size="11">Information flow</text>
<text transform="matrix(1 0 0 1 978.7374 830.0664)" font-family="'TitilliumText25L-800wt'" font-size="11">Financial flow</text>
<image overflow="visible" enable-background="new    " width="22" height="24" xlink:href="glyphish-icons/icons/38-airplane.png"  transform="matrix(0.9999 0 0 0.9999 627.1266 514.9639)">
</image>
<image overflow="visible" enable-background="new    " width="26" height="22" xlink:href="glyphish-icons/icons/37-suitcase.png"  transform="matrix(0.9999 0 0 0.9999 471.5992 516.9639)">
</image>
<image overflow="visible" enable-background="new    " width="24" height="21" xlink:href="glyphish-icons/icons/111-user.png"  transform="matrix(0.9999 0 0 0.9999 768.8253 534.7881)">
</image>
<image overflow="visible" enable-background="new    " width="32" height="21" xlink:href="glyphish-icons/icons/112-group.png"  transform="matrix(0.9999 0 0 0.9999 962.5284 303.7568)">
</image>
<image overflow="visible" enable-background="new    " width="32" height="21" xlink:href="glyphish-icons/icons/112-group.png"  transform="matrix(0.9999 0 0 0.9999 846.4269 535.7568)">
</image>
<image overflow="visible" enable-background="new    " width="14" height="24" xlink:href="glyphish-icons/icons/177-building.png"  transform="matrix(1 0 0 1 631.1261 464.2031)">
</image>
<image overflow="visible" enable-background="new    " width="26" height="25" xlink:href="glyphish-icons/icons/189-plant.png"  transform="matrix(1 0 0 1 636.1241 198.9883)">
</image>
<image overflow="visible" enable-background="new    " width="20" height="24" xlink:href="glyphish-icons/icons/91-beaker-2.png"  transform="matrix(0.9999 0 0 0.9999 528.4176 199.4873)">
</image>
<image overflow="visible" enable-background="new    " width="24" height="16" xlink:href="glyphish-icons/icons/56-cloud.png"  transform="matrix(0.9999 0 0 0.9999 720.9274 319.7529)">
</image>
<image overflow="visible" enable-background="new    " width="24" height="16" xlink:href="glyphish-icons/icons/12-eye.png"  transform="matrix(1.025 0 0 0.9999 472.6852 382.5986)">
</image>
<image overflow="visible" enable-background="new    " width="22" height="26" xlink:href="glyphish-icons/icons/24-gift.png"  transform="matrix(0.9999 0 0 0.9999 318.5875 161.4365)">
</image>
<text transform="matrix(1 0 0 1 768.8253 568.4697)" font-family="'AbadiMT-CondensedLight'" font-size="14">USER</text>
<text transform="matrix(1 0 0 1 830.4269 574.5547)" font-family="'AbadiMT-CondensedLight'" font-size="14">SOCIAL MEDIA</text>
<text transform="matrix(1 0 0 1 894.0118 527.377)" font-family="'AbadiMT-CondensedLight'" font-size="14">FASHION BLOGGER</text>
<text transform="matrix(1 0 0 1 624.1271 504.4639)" font-family="'AbadiMT-CondensedLight'" font-size="14">HOTEL</text>
<g>
	
		<text transform="matrix(-4.371139e-08 -1 1 -4.371139e-08 776.1466 488.2026)" fill="#A6A6A6" font-family="'AbadiMT-CondensedLight'" font-size="8">PHOTO UPLOADING</text>
</g>
<text transform="matrix(-4.371139e-08 -1 1 -4.371139e-08 480.3048 485.6304)" fill="#A6A6A6" font-family="'AbadiMT-CondensedLight'" font-size="8">LOCATION TRACKING</text>
<g>
	<text transform="matrix(1 0 0 1 749.1183 369.9893)" fill="#A6A6A6" font-family="'AbadiMT-CondensedLight'" font-size="8">CUSTOMER PREFERANCE</text>
</g>
<text transform="matrix(1 0 0 1 284.0304 338.2119)" font-family="'AbadiMT-CondensedLight'" font-size="14">COSMATICS PROVIDER</text>
<text transform="matrix(1 0 0 1 437.2042 557.4395)" font-family="'AbadiMT-CondensedLight'" font-size="14">LOGISTIC ORGANIZER</text>
<text transform="matrix(1.0251 0 0 1 422.5021 412.5977)" font-family="'AbadiMT-CondensedLight'" font-size="14">EU PUBLIC ADMINISTRATION</text>
<g>
	<text transform="matrix(1 0 0 1 531.4152 343.209)" fill="#A6A6A6" font-family="'AbadiMT-CondensedLight'" font-size="8">MONITORING PROCESSES PHYSICAL INTERNET</text>
</g>
<text transform="matrix(1 0 0 1 712.0304 350.25)" font-family="'AbadiMT-CondensedLight'" font-size="14">BIG DATA</text>
<g>
	<text transform="matrix(1 0 0 1 500.3712 239.4844)" font-family="'AbadiMT-CondensedLight'" font-size="14">DERMATOLOGIST</text>
</g>
<g>
	<text transform="matrix(1 0 0 1 627.6285 239.4844)" font-family="'AbadiMT-CondensedLight'" font-size="14">BIOLOGIST</text>
</g>
<text transform="matrix(1 0 0 1 826.1671 404.5977)" font-family="'AbadiMT-CondensedLight'" font-size="14">BEAUTY APP</text>
<text transform="matrix(1 0 0 1 900.6417 327.7529)" font-family="'AbadiMT-CondensedLight'" font-size="14">DEVELOPERS</text>
<text transform="matrix(1 0 0 1 952.1105 409.6221)" font-family="'AbadiMT-CondensedLight'" font-size="14">UI DESIGNER</text>
<text transform="matrix(1 0 0 1 624.1271 607.3125)" font-family="'AbadiMT-CondensedLight'" font-size="14">HOME</text>
<text transform="matrix(1 0 0 1 283.902 203.4355)" font-family="'AbadiMT-CondensedLight'" font-size="14">PACKAGING PROVIDER</text>
<text transform="matrix(1 0 0 1 617.1271 556.6895)" font-family="'AbadiMT-CondensedLight'" font-size="14">AIRPORT</text>
<image overflow="visible" enable-background="new    " width="22" height="22" xlink:href="glyphish-icons/icons/53-house.png"  transform="matrix(0.9999 0 0 0.9999 627.6285 570.6162)">
</image>
<image overflow="visible" enable-background="new    " width="26" height="22" xlink:href="glyphish-icons/icons/190-bank.png"  transform="matrix(1 0 0 1 318.2794 298.0215)">
</image>
<image overflow="visible" enable-background="new    " width="22" height="28" xlink:href="glyphish-icons/icons/176-ipad.png"  transform="matrix(1 0 0 1 843.3751 365.3984)">
</image>
<image overflow="visible" enable-background="new    " width="24" height="20" xlink:href="glyphish-icons/icons/98-palette.png"  transform="matrix(0.9999 0 0 0.9999 966.5284 369.3994)">
</image>
<image overflow="visible" enable-background="new    " width="30" height="23" xlink:href="glyphish-icons/icons/163-glasses-1.png"  transform="matrix(1 0 0 1 915.0548 485.6309)">
</image>
<g>
	<g>
		<polyline fill="none" stroke="#A6A6A6" stroke-width="2.8346" stroke-linejoin="round" stroke-dasharray="2.8346,2.8346" points="
			962.765,311.522 853.682,311.522 853.682,358.222 		"/>
		<g>
			<rect x="849.003" y="353.31" fill="#A6A6A6" width="9.357" height="9.356"/>
		</g>
	</g>
</g>
<g>
	<g>
		
			<line fill="none" stroke="#A6A6A6" stroke-width="2.8346" stroke-linejoin="round" stroke-dasharray="2.8346,2.8346" x1="978.527" y1="361.232" x2="978.527" y2="331.698"/>
		<g>
			<rect x="973.849" y="356.32" fill="#A6A6A6" width="9.357" height="9.356"/>
		</g>
		<g>
			<rect x="973.849" y="327.254" fill="#A6A6A6" width="9.357" height="9.356"/>
		</g>
	</g>
</g>
<g>
	<polyline fill="none" stroke="#2AEA9C" stroke-width="9.9213" stroke-miterlimit="10" points="655.168,474.232 682.168,474.232 
		682.168,526.961 655.168,526.961 	"/>
	<polyline fill="none" stroke="#2AEA9C" stroke-width="9.9213" stroke-miterlimit="10" points="682.168,506.56 739.168,506.56 
		739.168,592.613 660.168,592.613 	"/>
	<g>
		<g>
			
				<line fill="none" stroke="#2AEA9C" stroke-width="9.9213" stroke-miterlimit="10" x1="739.168" y1="546.256" x2="750.734" y2="546.256"/>
			<g>
				<polygon fill="#2AEA9C" points="749.118,534.203 749.118,558.309 761.168,546.256 				"/>
			</g>
		</g>
	</g>
</g>
<g>
	<g>
		
			<line fill="none" stroke="#A6A6A6" stroke-width="2.8346" stroke-linejoin="round" stroke-dasharray="2.8346,2.8346" x1="960.781" y1="377.915" x2="875.612" y2="377.915"/>
		<g>
			<rect x="871.168" y="373.237" fill="#A6A6A6" width="9.356" height="9.356"/>
		</g>
	</g>
</g>
<g>
	<g>
		<polyline fill="none" stroke="#A6A6A6" stroke-width="2.8346" stroke-linejoin="round" stroke-dasharray="2.8346,2.8346" points="
			732.926,359.654 732.926,374.646 832.724,374.682 		"/>
		<g>
			<rect x="728.247" y="355.21" fill="#A6A6A6" width="9.356" height="9.356"/>
		</g>
		<g>
			<rect x="827.813" y="370.003" fill="#A6A6A6" width="9.355" height="9.356"/>
		</g>
	</g>
</g>
<g>
	<g>
		
			<line fill="none" stroke="#A6A6A6" stroke-width="2.8346" stroke-linejoin="round" stroke-dasharray="2.8346,2.8346" x1="484.984" y1="420.545" x2="484.984" y2="505.08"/>
		<g>
			<rect x="480.775" y="416.545" fill="#A6A6A6" width="8.421" height="8.421"/>
		</g>
		<g>
			<rect x="480.775" y="500.66" fill="#A6A6A6" width="8.421" height="8.42"/>
		</g>
	</g>
</g>
<g>
	<g>
		<polyline fill="none" stroke="#A6A6A6" stroke-width="2.8346" stroke-linejoin="round" stroke-dasharray="2.8346,2.8346" points="
			484.984,374.667 484.984,333.177 712.03,333.177 		"/>
		<g>
			<rect x="480.305" y="369.989" fill="#A6A6A6" width="9.356" height="9.355"/>
		</g>
		<g>
			<rect x="707.352" y="328.499" fill="#A6A6A6" width="9.357" height="9.356"/>
		</g>
	</g>
</g>
<g>
	<g>
		<g>
			
				<polyline fill="none" stroke="#FF987F" stroke-width="2.8346" stroke-linecap="round" stroke-linejoin="round" stroke-dasharray="1.4173,11.3386" points="
				654.181,473.732 683.168,473.732 683.168,526.461 654.181,526.461 			"/>
			<g>
				<circle fill="#FF987F" cx="654.421" cy="473.733" r="4.796"/>
			</g>
			<g>
				<circle fill="#FF987F" cx="654.421" cy="526.461" r="4.796"/>
			</g>
		</g>
	</g>
	<g>
		<g>
			
				<line fill="none" stroke="#FF987F" stroke-width="2.8346" stroke-linecap="round" stroke-linejoin="round" x1="693.168" y1="505.458" x2="693.876" y2="505.474"/>
			
				<line fill="none" stroke="#FF987F" stroke-width="2.8346" stroke-linecap="round" stroke-linejoin="round" stroke-dasharray="1.2742,10.1933" x1="704.068" y1="505.719" x2="733.364" y2="506.422"/>
			<polyline fill="none" stroke="#FF987F" stroke-width="2.8346" stroke-linecap="round" stroke-linejoin="round" points="
				738.46,506.543 739.168,506.56 739.168,507.269 			"/>
			
				<line fill="none" stroke="#FF987F" stroke-width="2.8346" stroke-linecap="round" stroke-linejoin="round" stroke-dasharray="1.3651,10.9207" x1="739.168" y1="518.189" x2="739.168" y2="586.444"/>
			<polyline fill="none" stroke="#FF987F" stroke-width="2.8346" stroke-linecap="round" stroke-linejoin="round" points="
				739.168,591.904 739.168,592.613 738.459,592.606 			"/>
			
				<line fill="none" stroke="#FF987F" stroke-width="2.8346" stroke-linecap="round" stroke-linejoin="round" stroke-dasharray="1.5194,12.1556" x1="726.305" y1="592.489" x2="664.01" y2="591.887"/>
			
				<line fill="none" stroke="#FF987F" stroke-width="2.8346" stroke-linecap="round" stroke-linejoin="round" x1="657.933" y1="591.829" x2="657.224" y2="591.822"/>
			<g>
				<circle fill="#FF987F" cx="657.464" cy="591.824" r="4.796"/>
			</g>
		</g>
	</g>
	
		<line fill="none" stroke="#FF987F" stroke-width="2.8346" stroke-linecap="round" stroke-linejoin="round" stroke-miterlimit="10" stroke-dasharray="1.4173,11.3386" x1="744.925" y1="546.256" x2="761.168" y2="546.256"/>
</g>
<g>
	<g>
		<polyline fill="none" stroke="#A6A6A6" stroke-width="2.8346" stroke-linejoin="round" stroke-dasharray="2.8346,2.8346" points="
			734.668,314.255 732.926,267.132 538.416,267.132 538.416,248.303 		"/>
		<g>
			<rect x="533.738" y="243.859" fill="#A6A6A6" width="9.355" height="9.356"/>
		</g>
	</g>
</g>
<g>
	<g>
		<polyline fill="none" stroke="#54B5FF" stroke-width="2.8346" stroke-linejoin="round" stroke-dasharray="2.8346,2.8346" points="
			833.952,386.167 773.595,386.167 773.595,508.632 773.595,514.963 773.595,526.938 		"/>
		<g>
			<rect x="828.04" y="381.489" fill="#54B5FF" width="9.356" height="9.357"/>
		</g>
		<g>
			<rect x="768.147" y="522.025" fill="#54B5FF" width="9.356" height="9.355"/>
		</g>
	</g>
</g>
<g>
	<g>
		
			<line fill="none" stroke="#A6A6A6" stroke-width="2.8346" stroke-linejoin="round" stroke-dasharray="2.8346,2.8346" x1="649.124" y1="267.132" x2="649.124" y2="247.803"/>
		<g>
			<rect x="644.445" y="243.359" fill="#A6A6A6" width="9.356" height="9.356"/>
		</g>
	</g>
</g>
<path fill="none" stroke="#A6A6A6" stroke-miterlimit="10" d="M854.374,427.667"/>
<g>
	<g>
		
			<line fill="none" stroke="#A6A6A6" stroke-width="2.8346" stroke-linejoin="round" stroke-dasharray="2.8346,2.8346" x1="854.374" y1="534.789" x2="854.374" y2="409.042"/>
		<g>
			<rect x="849.695" y="404.597" fill="#A6A6A6" width="9.356" height="9.356"/>
		</g>
	</g>
</g>
<path fill="none" stroke="#000000" stroke-miterlimit="10" d="M909.113,494.5"/>
<g>
	<g>
		
			<polyline fill="none" stroke="#FF987F" stroke-width="2.8346" stroke-linecap="round" stroke-linejoin="round" stroke-dasharray="1.4173,11.3386" points="
			811.098,398.774 786.346,398.774 786.346,518.367 		"/>
		<g>
			<circle fill="#FF987F" cx="815.894" cy="398.774" r="4.796"/>
		</g>
		<g>
			<circle fill="#FF987F" cx="786.346" cy="526.307" r="4.796"/>
		</g>
	</g>
</g>
<g>
	<g>
		
			<line fill="none" stroke="#54B5FF" stroke-width="2.8346" stroke-linejoin="round" stroke-dasharray="2.8346,2.8346" x1="801.12" y1="546.256" x2="832.724" y2="546.256"/>
		<g>
			<rect x="796.676" y="541.578" fill="#54B5FF" width="9.356" height="9.355"/>
		</g>
		<g>
			<rect x="827.813" y="541.578" fill="#54B5FF" width="9.355" height="9.355"/>
		</g>
	</g>
</g>
<line fill="none" stroke="#A6A6A6" stroke-width="9.9213" stroke-miterlimit="10" x1="335.488" y1="208.179" x2="335.488" y2="291.667"/>
<polyline fill="none" stroke="#A6A6A6" stroke-width="9.9213" stroke-miterlimit="10" points="335.488,339.797 335.488,526.129 
	464.168,526.129 "/>
<g>
	<g>
		<polyline fill="none" stroke="#A6A6A6" stroke-width="2.8346" stroke-linejoin="round" stroke-dasharray="2.8346,2.8346" points="
			592.911,168.667 592.911,149.667 447.217,149.667 447.217,316.844 355.339,316.844 		"/>
		<g>
			<rect x="350.661" y="312.165" fill="#A6A6A6" width="9.355" height="9.356"/>
		</g>
	</g>
</g>
<g>
	<g>
		<polyline fill="none" stroke="#A6A6A6" stroke-width="2.8346" stroke-linejoin="round" stroke-dasharray="2.8346,2.8346" points="
			885.989,549.939 1035.572,549.939 1035.572,311.522 998.97,311.522 		"/>
		<g>
			<rect x="994.526" y="306.844" fill="#A6A6A6" width="9.355" height="9.356"/>
		</g>
	</g>
</g>
<polyline fill="none" stroke="#A6A6A6" stroke-width="9.9213" stroke-miterlimit="10" points="508.168,526.129 592.911,526.129 
	592.911,472.982 624.127,472.982 "/>
<polyline fill="none" stroke="#A6A6A6" stroke-width="9.9213" stroke-miterlimit="10" points="619.777,591.778 592.911,591.778 
	592.911,526.129 619.777,526.129 "/>
<g>
	<g>
		<polyline fill="none" stroke="#A6A6A6" stroke-width="2.8346" stroke-linejoin="round" stroke-dasharray="2.8346,2.8346" points="
			854.193,449.027 929.556,449.027 929.556,476.054 		"/>
		<g>
			<rect x="849.749" y="444.349" fill="#A6A6A6" width="9.356" height="9.356"/>
		</g>
		<g>
			<rect x="924.877" y="471.142" fill="#A6A6A6" width="9.357" height="9.357"/>
		</g>
	</g>
</g>
<path fill="none" stroke="#7F7F7F" stroke-width="2.8346" stroke-linejoin="round" stroke-miterlimit="10" stroke-dasharray="2.8346" d="
	M358.805,303.667"/>
<g>
	<g>
		
			<line fill="none" stroke="#A6A6A6" stroke-width="2.8346" stroke-linecap="round" stroke-linejoin="round" x1="611.719" y1="236.743" x2="611.719" y2="236.035"/>
		
			<line fill="none" stroke="#A6A6A6" stroke-width="2.8346" stroke-linecap="round" stroke-linejoin="round" stroke-dasharray="1.3683,10.9467" x1="611.719" y1="225.088" x2="611.719" y2="193.616"/>
		<polyline fill="none" stroke="#A6A6A6" stroke-width="2.8346" stroke-linecap="round" stroke-linejoin="round" points="
			611.719,188.143 611.719,187.434 611.01,187.434 		"/>
		
			<line fill="none" stroke="#A6A6A6" stroke-width="2.8346" stroke-linecap="round" stroke-linejoin="round" stroke-dasharray="1.3657,10.9259" x1="600.084" y1="187.434" x2="470.339" y2="187.434"/>
		<polyline fill="none" stroke="#A6A6A6" stroke-width="2.8346" stroke-linecap="round" stroke-linejoin="round" points="
			464.877,187.434 464.168,187.434 464.168,188.143 		"/>
		
			<line fill="none" stroke="#A6A6A6" stroke-width="2.8346" stroke-linecap="round" stroke-linejoin="round" stroke-dasharray="1.4352,11.4815" x1="464.168" y1="199.625" x2="464.168" y2="297.218"/>
		<polyline fill="none" stroke="#A6A6A6" stroke-width="2.8346" stroke-linecap="round" stroke-linejoin="round" points="
			464.168,302.958 464.168,303.667 463.46,303.667 		"/>
		
			<line fill="none" stroke="#A6A6A6" stroke-width="2.8346" stroke-linecap="round" stroke-linejoin="round" stroke-dasharray="1.3778,11.0225" x1="452.438" y1="303.667" x2="358.745" y2="303.667"/>
		
			<line fill="none" stroke="#A6A6A6" stroke-width="2.8346" stroke-linecap="round" stroke-linejoin="round" x1="353.234" y1="303.667" x2="352.526" y2="303.667"/>
		<g>
			<circle fill="#A6A6A6" cx="611.719" cy="236.504" r="4.796"/>
		</g>
	</g>
</g>
<g>
	<g>
		
			<line fill="none" stroke="#A6A6A6" stroke-width="2.8346" stroke-linecap="round" stroke-linejoin="round" stroke-dasharray="1.4173,11.3386" x1="490.547" y1="193.667" x2="490.547" y2="234.928"/>
		<g>
			<circle fill="#A6A6A6" cx="490.547" cy="234.689" r="4.796"/>
		</g>
	</g>
</g>
<g>
	<g>
		
			<line fill="none" stroke="#A6A6A6" stroke-width="2.8346" stroke-linejoin="round" x1="538.003" y1="193.667" x2="538.003" y2="192.249"/>
		
			<line fill="none" stroke="#A6A6A6" stroke-width="2.8346" stroke-linejoin="round" stroke-dasharray="3.2793,3.2793" x1="538.003" y1="188.97" x2="538.003" y2="177.493"/>
		<polyline fill="none" stroke="#A6A6A6" stroke-width="2.8346" stroke-linejoin="round" points="538.003,175.853 538.003,174.436 
			539.42,174.436 		"/>
		
			<line fill="none" stroke="#A6A6A6" stroke-width="2.8346" stroke-linejoin="round" stroke-dasharray="2.7766,2.7766" x1="542.196" y1="174.436" x2="646.318" y2="174.436"/>
		<polyline fill="none" stroke="#A6A6A6" stroke-width="2.8346" stroke-linejoin="round" points="647.707,174.436 649.124,174.436 
			649.124,175.853 		"/>
		
			<line fill="none" stroke="#A6A6A6" stroke-width="2.8346" stroke-linejoin="round" stroke-dasharray="3.2793,3.2793" x1="649.124" y1="179.133" x2="649.124" y2="190.61"/>
		
			<line fill="none" stroke="#A6A6A6" stroke-width="2.8346" stroke-linejoin="round" x1="649.124" y1="192.249" x2="649.124" y2="193.667"/>
	</g>
</g>
<g>
	<g>
		
			<polyline fill="none" stroke="#A6A6A6" stroke-width="2.8346" stroke-linecap="round" stroke-linejoin="round" stroke-dasharray="1.4173,11.3386" points="
			320.279,342.052 320.279,538.959 462.958,538.959 		"/>
		<g>
			<circle fill="#A6A6A6" cx="462.718" cy="538.96" r="4.796"/>
		</g>
	</g>
</g>
<g>
	<g>
		
			<line fill="none" stroke="#A6A6A6" stroke-width="2.8346" stroke-linecap="round" stroke-linejoin="round" stroke-dasharray="1.4173,11.3386" x1="320.279" y1="291.667" x2="320.279" y2="212.735"/>
		<g>
			<circle fill="#A6A6A6" cx="320.279" cy="212.975" r="4.796"/>
		</g>
	</g>
</g>
<path fill="none" stroke="#FF987F" stroke-width="4.252" stroke-linecap="round" stroke-linejoin="round" stroke-miterlimit="10" stroke-dasharray="1.4173,11.3386" d="
	M768.825,538.959"/>
<g>
	<g>
		
			<polyline fill="none" stroke="#A6A6A6" stroke-width="2.8346" stroke-linecap="round" stroke-linejoin="round" stroke-dasharray="1.4173,11.3386" points="
			315.278,303.833 270.168,303.833 270.168,763.58 1216.168,763.58 1216.168,239.485 978.168,239.485 978.168,293.409 		"/>
		<g>
			<circle fill="#A6A6A6" cx="978.168" cy="293.17" r="4.796"/>
		</g>
	</g>
</g>
<g>
	<g>
		
			<polyline fill="none" stroke="#FF987F" stroke-width="2.8346" stroke-linecap="round" stroke-linejoin="round" stroke-dasharray="1.4173,11.3386" points="
			780.824,574.555 780.824,636.001 308.503,636.001 308.503,342.768 		"/>
		<g>
			<circle fill="#FF987F" cx="308.503" cy="343.008" r="4.796"/>
		</g>
	</g>
</g>
<image overflow="visible" opacity="0.5" enable-background="new    " width="22" height="25" xlink:href="glyphish-icons/icons/168-upload-photo-2.png"  transform="matrix(-2.697300e-08 -0.6171 0.6171 -2.697300e-08 750.7355 465.5635)">
</image>
<image overflow="visible" opacity="0.5" enable-background="new    " width="24" height="17" xlink:href="glyphish-icons/icons/123-id-card.png"  transform="matrix(0.5 0 0 0.5 776.8253 352.0703)">
</image>
<image overflow="visible" opacity="0.5" enable-background="new    " width="16" height="26" xlink:href="glyphish-icons/icons/07-map-marker.png"  transform="matrix(6.556173e-08 -0.5 0.5 6.556173e-08 456.9606 462.7744)">
</image>
</svg>
